<?xml version="1.0" standalone="no"?><!-- Generator: Gravit.io --><svg xmlns="http://www.w3.org/2000/svg" xmlns:xlink="http://www.w3.org/1999/xlink" style="isolation:isolate" viewBox="0 0 560 315" width="560" height="315"><defs><clipPath id="_clipPath_NlHep1BZfOfIFSAJ0QPNH2eGynF09af9"><rect width="560" height="315"/></clipPath></defs><g clip-path="url(#_clipPath_NlHep1BZfOfIFSAJ0QPNH2eGynF09af9)"><path d=" M 0 0 L 560 0 L 560 315 L 0 315 L 0 0 Z " fill="rgb(7,219,116)"/><path d=" M 27.536 190.044 L 27.536 131.724 L 50.144 131.724 L 50.144 137.772 L 35.672 137.772 L 35.672 157.068 L 47.408 157.068 L 47.408 162.828 L 35.672 162.828 L 35.672 184.212 L 50.288 184.212 L 50.288 190.044 L 27.536 190.044 Z  M 52.952 190.044 L 62.312 168.156 L 53.168 148.428 L 60.512 148.428 L 66.632 161.604 L 72.032 148.428 L 79.592 148.428 L 70.088 169.092 L 79.736 190.044 L 72.392 190.044 L 65.84 175.932 L 60.224 190.044 L 52.952 190.044 Z  M 95.576 190.62 L 95.576 190.62 Q 90.68 190.62 88.016 188.64 L 88.016 188.64 L 88.016 188.64 Q 85.352 186.66 84.38 183.096 L 84.38 183.096 L 84.38 183.096 Q 83.408 179.532 83.408 174.06 L 83.408 174.06 L 83.408 164.484 L 83.408 164.484 Q 83.408 158.868 84.38 155.268 L 84.38 155.268 L 84.38 155.268 Q 85.352 151.668 88.016 149.76 L 88.016 149.76 L 88.016 149.76 Q 90.68 147.852 95.576 147.852 L 95.576 147.852 L 95.576 147.852 Q 100.04 147.852 102.524 149.292 L 102.524 149.292 L 102.524 149.292 Q 105.008 150.732 105.98 153.576 L 105.98 153.576 L 105.98 153.576 Q 106.952 156.42 106.952 160.956 L 106.952 160.956 L 106.952 163.404 L 99.968 163.404 L 99.968 160.884 L 99.968 160.884 Q 99.968 156.78 99.068 155.16 L 99.068 155.16 L 99.068 155.16 Q 98.168 153.54 95.648 153.54 L 95.648 153.54 L 95.648 153.54 Q 93.704 153.54 92.768 154.404 L 92.768 154.404 L 92.768 154.404 Q 91.832 155.268 91.472 157.212 L 91.472 157.212 L 91.472 157.212 Q 91.112 159.156 91.112 162.9 L 91.112 162.9 L 91.112 176.004 L 91.112 176.004 Q 91.112 179.604 91.544 181.512 L 91.544 181.512 L 91.544 181.512 Q 91.976 183.42 92.948 184.176 L 92.948 184.176 L 92.948 184.176 Q 93.92 184.932 95.72 184.932 L 95.72 184.932 L 95.72 184.932 Q 98.384 184.932 99.176 183.168 L 99.176 183.168 L 99.176 183.168 Q 99.968 181.404 99.968 177.732 L 99.968 177.732 L 99.968 174.348 L 106.952 174.348 L 106.952 177.228 L 106.952 177.228 Q 106.952 183.996 104.468 187.308 L 104.468 187.308 L 104.468 187.308 Q 101.984 190.62 95.576 190.62 L 95.576 190.62 Z  M 125.312 190.62 L 125.312 190.62 Q 120.488 190.62 117.824 188.784 L 117.824 188.784 L 117.824 188.784 Q 115.16 186.948 114.08 183.348 L 114.08 183.348 L 114.08 183.348 Q 113 179.748 113 173.988 L 113 173.988 L 113 164.484 L 113 164.484 Q 113 155.844 115.7 151.848 L 115.7 151.848 L 115.7 151.848 Q 118.4 147.852 125.312 147.852 L 125.312 147.852 L 125.312 147.852 Q 130.352 147.852 132.908 149.94 L 132.908 149.94 L 132.908 149.94 Q 135.464 152.028 136.292 155.808 L 136.292 155.808 L 136.292 155.808 Q 137.12 159.588 137.12 165.996 L 137.12 165.996 L 137.12 169.38 L 120.704 169.38 L 120.704 174.924 L 120.704 174.924 Q 120.704 178.668 120.884 180.54 L 120.884 180.54 L 120.884 180.54 Q 121.064 182.412 122.036 183.672 L 122.036 183.672 L 122.036 183.672 Q 123.008 184.932 125.24 184.932 L 125.24 184.932 L 125.24 184.932 Q 127.76 184.932 128.66 183.24 L 128.66 183.24 L 128.66 183.24 Q 129.56 181.548 129.56 178.092 L 129.56 178.092 L 129.56 175.572 L 137.048 175.572 L 137.048 177.156 L 137.048 177.156 Q 137.048 183.708 134.24 187.164 L 134.24 187.164 L 134.24 187.164 Q 131.432 190.62 125.312 190.62 L 125.312 190.62 Z  M 120.704 165.204 L 129.56 165.204 L 129.56 161.46 L 129.56 161.46 Q 129.56 157.212 128.732 155.376 L 128.732 155.376 L 128.732 155.376 Q 127.904 153.54 125.24 153.54 L 125.24 153.54 L 125.24 153.54 Q 123.368 153.54 122.396 154.404 L 122.396 154.404 L 122.396 154.404 Q 121.424 155.268 121.064 157.248 L 121.064 157.248 L 121.064 157.248 Q 120.704 159.228 120.704 162.972 L 120.704 162.972 L 120.704 165.204 Z  M 144.824 190.044 L 144.824 131.724 L 152.528 131.724 L 152.528 190.044 L 144.824 190.044 Z " fill-rule="evenodd" fill="rgb(255,255,255)"/><path d=" M 400.392 190.044 L 401.472 131.724 L 409.464 131.724 L 419.76 179.028 L 430.128 131.724 L 438.048 131.724 L 439.128 190.044 L 432.576 190.044 L 431.928 147.708 L 422.064 190.044 L 417.456 190.044 L 407.664 147.708 L 407.016 190.044 L 400.392 190.044 Z  M 446.76 200.484 L 446.76 194.58 L 446.76 194.58 Q 451.08 194.58 452.7 193.932 L 452.7 193.932 L 452.7 193.932 Q 454.32 193.284 454.32 191.484 L 454.32 191.484 L 454.32 191.484 Q 454.32 191.052 454.032 189.612 L 454.032 189.612 L 453.096 185.292 L 452.736 183.852 L 452.736 183.852 Q 449.136 168.876 444.384 148.428 L 444.384 148.428 L 452.16 148.428 L 457.776 179.532 L 463.176 148.428 L 470.952 148.428 L 461.016 192.348 L 461.016 192.348 Q 460.008 196.74 456.768 198.612 L 456.768 198.612 L 456.768 198.612 Q 453.528 200.484 447.696 200.484 L 447.696 200.484 L 446.76 200.484 Z  M 485.28 190.62 L 485.28 190.62 Q 480.24 190.62 477.108 187.452 L 477.108 187.452 L 477.108 187.452 Q 473.976 184.284 473.544 178.956 L 473.544 178.956 L 479.952 177.012 L 479.952 177.012 Q 480.456 181.044 481.788 182.988 L 481.788 182.988 L 481.788 182.988 Q 483.12 184.932 485.568 184.932 L 485.568 184.932 L 485.568 184.932 Q 487.584 184.932 488.88 183.672 L 488.88 183.672 L 488.88 183.672 Q 490.176 182.412 490.176 180.468 L 490.176 180.468 L 490.176 180.468 Q 490.176 177.228 486.792 174.348 L 486.792 174.348 L 479.664 168.228 L 479.664 168.228 Q 477.216 166.14 475.884 163.872 L 475.884 163.872 L 475.884 163.872 Q 474.552 161.604 474.552 158.292 L 474.552 158.292 L 474.552 158.292 Q 474.552 153.324 477.432 150.588 L 477.432 150.588 L 477.432 150.588 Q 480.312 147.852 485.28 147.852 L 485.28 147.852 L 485.28 147.852 Q 490.032 147.852 492.732 150.912 L 492.732 150.912 L 492.732 150.912 Q 495.432 153.972 495.864 158.796 L 495.864 158.796 L 490.68 160.74 L 490.68 160.74 Q 490.176 157.212 489.024 155.376 L 489.024 155.376 L 489.024 155.376 Q 487.872 153.54 485.568 153.54 L 485.568 153.54 L 485.568 153.54 Q 483.696 153.54 482.544 154.764 L 482.544 154.764 L 482.544 154.764 Q 481.392 155.988 481.464 157.788 L 481.464 157.788 L 481.464 157.788 Q 481.464 160.164 483.552 161.964 L 483.552 161.964 L 490.896 168.732 L 490.896 168.732 Q 493.632 171.18 495.216 173.772 L 495.216 173.772 L 495.216 173.772 Q 496.8 176.364 496.8 179.964 L 496.8 179.964 L 496.8 179.964 Q 496.8 185.148 493.704 187.884 L 493.704 187.884 L 493.704 187.884 Q 490.608 190.62 485.28 190.62 L 485.28 190.62 Z  M 518.976 203.724 L 518.976 187.38 L 518.976 187.38 Q 515.952 190.62 512.136 190.62 L 512.136 190.62 L 512.136 190.62 Q 506.808 190.62 504.324 186.66 L 504.324 186.66 L 504.324 186.66 Q 501.84 182.7 501.84 173.7 L 501.84 173.7 L 501.84 165.636 L 501.84 165.636 Q 501.84 157.356 504.036 152.604 L 504.036 152.604 L 504.036 152.604 Q 506.232 147.852 512.064 147.852 L 512.064 147.852 L 512.064 147.852 Q 515.736 147.852 518.976 151.092 L 518.976 151.092 L 518.976 148.428 L 526.68 148.428 L 526.68 203.724 L 518.976 203.724 Z  M 514.224 184.572 L 514.224 184.572 Q 516.672 184.572 518.976 182.988 L 518.976 182.988 L 518.976 155.7 L 518.976 155.7 Q 516.312 153.9 514.08 153.9 L 514.08 153.9 L 514.08 153.9 Q 509.544 153.9 509.544 162.612 L 509.544 162.612 L 509.544 174.348 L 509.544 174.348 Q 509.544 179.388 510.48 181.98 L 510.48 181.98 L 510.48 181.98 Q 511.416 184.572 514.224 184.572 L 514.224 184.572 Z  M 535.176 190.044 L 535.176 131.724 L 542.88 131.724 L 542.88 190.044 L 535.176 190.044 Z " fill-rule="evenodd" fill="rgb(255,255,255)"/><path d=" M 291.223 217.86 C 290.231 217.862 289.278 217.469 288.576 216.767 C 287.875 216.065 287.481 215.113 287.483 214.12 L 287.483 184.2 L 205.203 184.2 C 203.138 184.2 201.463 182.526 201.463 180.46 L 201.463 150.54 C 201.463 148.475 203.138 146.8 205.203 146.8 L 287.483 146.8 L 287.483 116.88 C 287.483 115.457 288.291 114.157 289.567 113.526 C 290.844 112.896 292.367 113.045 293.497 113.911 L 357.077 162.531 C 357.998 163.241 358.538 164.338 358.537 165.501 C 358.536 166.664 357.995 167.761 357.073 168.47 L 293.493 217.09 C 292.843 217.591 292.044 217.862 291.223 217.86 Z " fill="rgb(255,255,255)"/></g></svg>